# xmcd
#
# Track frame offsets: 
#        150
#        12741
#        26753
#        39281
#        52964
#        68857
#        81916
#        95252
#        116291
#        129032
#        142942
#        157944
#        167314
#        180298
#        192600
#        204898
#        222845
#        236475
#        249784
#        262486
#
# Disc length: 3720 seconds
#
# Revision: 0
# Processed by: cddbd v1.5.2PL0 Copyright (c) Steve Scherf et al.
# Submitted via: ExactAudioCopy v1.3
#
DISCID=fe0e8614
DTITLE=Various Artist - Ladies Sing Them Blues [CD2)
DYEAR=2018
DGENRE=Blues
TTITLE0=Donna Hightower - Every Day I Have The Blues
TTITLE1=Dinah Washington - Fine Fat Daddy
TTITLE2=Rosetta Howard - Plow Hand Blues
TTITLE3=Billie Holiday - Strange Fruit
TTITLE4=Ida Cox With The Coleman Hawkins Quintet - Cherry Pickin' Blue
TTITLE4=s
TTITLE5=Lula Reed - I'm A Woman (But I Don't Talk Too Much)
TTITLE6=Barbara Dane - Mecca Flat Blues
TTITLE7=LaVern Baker - Back Water Blues
TTITLE8=Big Maybelle - Ramblin' Blues
TTITLE9=Lucille Bogan - I Hate That Train Called The M and O
TTITLE10=Bessie Smith - Careless Love Blues
TTITLE11=Annisteen Allen - I've Got Troubles
TTITLE12=Mildred Bailey - You Don't Know My Mind Blues
TTITLE13=Odetta - Leavin' This Mornin'
TTITLE14=Lou Barker - He Caught That B and O Blue
TTITLE15=Helen Shapiro - Blues In The Night
TTITLE16=Nina Simone - Gin House Blues
TTITLE17=Bessie Jackson - T N and O Blues
TTITLE18=Etta Jones - Long, Long Journey
TTITLE19=Dinah Washington - After You've Gone
EXTD=
EXTT0=
EXTT1=
EXTT2=
EXTT3=
EXTT4=
EXTT5=
EXTT6=
EXTT7=
EXTT8=
EXTT9=
EXTT10=
EXTT11=
EXTT12=
EXTT13=
EXTT14=
EXTT15=
EXTT16=
EXTT17=
EXTT18=
EXTT19=
PLAYORDER=
